# Blender v2.82 (sub 7) OBJ File: 'pooltbl.blend'
# www.blender.org
mtllib pooltbl.mtl
o Cube
v 0.495000 0.000000 -0.989999
v 0.495000 -0.025000 -0.989999
v 0.495000 0.000000 0.989999
v 0.495000 -0.025000 0.989999
v -0.495000 0.000000 -0.989998
v -0.495000 -0.025000 -0.989998
v -0.495000 0.000000 0.990000
v -0.495000 -0.025000 0.990000
v -0.512800 -0.025000 -0.989998
v -0.512800 -0.025000 0.990000
v -0.512800 0.000000 0.990000
v -0.512800 0.000000 -0.989998
v 0.512800 0.000000 -0.989999
v 0.512800 -0.025000 -0.989999
v 0.512800 0.000000 0.989999
v 0.512800 -0.025000 0.989999
v -0.495000 -0.025000 1.007800
v -0.495000 0.000000 1.007800
v 0.495000 0.000000 1.007799
v 0.495000 -0.025000 1.007799
v 0.495000 -0.025000 -1.007801
v -0.495000 -0.025000 -1.007800
v 0.495000 0.000000 -1.007801
v -0.495000 0.000000 -1.007800
v 0.495000 0.000000 -0.989999
v 0.495000 0.000000 0.989999
v 0.512800 0.000000 -0.989999
v 0.512800 0.000000 0.989999
v 0.495000 0.041275 -0.989999
v 0.495000 0.041275 0.989999
v 0.512800 0.041275 -0.989999
v 0.512800 0.041275 0.989999
v -0.495000 0.041275 -0.989998
v 0.495000 0.041275 -0.989999
v -0.495000 0.041275 -1.007800
v 0.495000 0.041275 -1.007801
v -0.495000 0.041275 0.990000
v -0.495000 0.041275 -0.989998
v -0.512800 0.041275 0.990000
v -0.512800 0.041275 -0.989998
v 0.495000 0.041275 0.989999
v -0.495000 0.041275 0.990000
v 0.495000 0.041275 1.007799
v -0.495000 0.041275 1.007800
vt 0.001300 0.334634
vt 0.309379 0.998700
vt 0.309379 0.334634
vt 0.620059 0.488283
vt 0.311980 0.480467
vt 0.311980 0.488283
vt 0.969573 0.334634
vt 0.962465 0.998700
vt 0.969573 0.998700
vt 0.620059 0.332033
vt 0.001300 0.001300
vt 0.001300 0.332033
vt 0.399359 0.501300
vt 0.406467 0.509116
vt 0.406467 0.501300
vt 0.688020 0.001300
vt 0.680912 0.332033
vt 0.688020 0.332033
vt 0.930738 0.397134
vt 0.311980 0.404950
vt 0.930738 0.404950
vt 0.321689 0.522134
vt 0.328797 0.540366
vt 0.328797 0.522134
vt 0.389650 0.501300
vt 0.396758 0.509116
vt 0.396758 0.501300
vt 0.321689 0.511717
vt 0.328797 0.519533
vt 0.328797 0.511717
vt 0.952757 0.334634
vt 0.959865 0.998700
vt 0.959865 0.334634
vt 0.311980 0.511717
vt 0.319088 0.519533
vt 0.319088 0.511717
vt 0.930738 0.467450
vt 0.311980 0.459634
vt 0.311980 0.467450
vt 0.328797 0.501300
vt 0.321689 0.509116
vt 0.328797 0.509116
vt 0.671203 0.001300
vt 0.678311 0.332033
vt 0.678311 0.001300
vt 0.311980 0.522134
vt 0.319088 0.540366
vt 0.319088 0.522134
vt 0.311980 0.501300
vt 0.319088 0.509116
vt 0.319088 0.501300
vt 0.341106 0.511717
vt 0.348214 0.519533
vt 0.348214 0.511717
vt 0.620059 0.470050
vt 0.311980 0.477866
vt 0.620059 0.477866
vt 0.658894 0.001300
vt 0.642077 0.332033
vt 0.658894 0.332033
vt 0.331397 0.511717
vt 0.338505 0.519533
vt 0.338505 0.511717
vt 0.341106 0.501300
vt 0.348214 0.509116
vt 0.348214 0.501300
vt 0.930738 0.373700
vt 0.311980 0.355467
vt 0.311980 0.373700
vt 0.988991 0.998700
vt 0.981883 0.334634
vt 0.981883 0.998700
vt 0.311980 0.457033
vt 0.930738 0.449217
vt 0.311980 0.449217
vt 0.338505 0.501300
vt 0.331397 0.509116
vt 0.338505 0.509116
vt 0.998700 0.334634
vt 0.991592 0.998700
vt 0.998700 0.998700
vt 0.341106 0.522134
vt 0.348214 0.540366
vt 0.348214 0.522134
vt 0.930738 0.352866
vt 0.311980 0.334634
vt 0.311980 0.352866
vt 0.331397 0.522134
vt 0.338505 0.540366
vt 0.338505 0.522134
vt 0.668603 0.332033
vt 0.661495 0.001300
vt 0.661495 0.332033
vt 0.379941 0.501300
vt 0.387049 0.519533
vt 0.387049 0.501300
vt 0.620059 0.425783
vt 0.311980 0.407550
vt 0.311980 0.425783
vt 0.370232 0.501300
vt 0.377340 0.519533
vt 0.377340 0.501300
vt 0.979282 0.334634
vt 0.972174 0.998700
vt 0.979282 0.998700
vt 0.930738 0.394533
vt 0.311980 0.376300
vt 0.311980 0.394533
vt 0.950156 0.334634
vt 0.933339 0.998700
vt 0.950156 0.998700
vt 0.360524 0.501300
vt 0.367632 0.519533
vt 0.367632 0.501300
vt 0.311980 0.498700
vt 0.620059 0.490884
vt 0.311980 0.490884
vt 0.639476 0.001300
vt 0.622660 0.332033
vt 0.639476 0.332033
vt 0.620059 0.446616
vt 0.311980 0.428384
vt 0.311980 0.446616
vt 0.350815 0.501300
vt 0.357923 0.519533
vt 0.357923 0.501300
vt 0.001300 0.998700
vt 0.620059 0.480467
vt 0.962465 0.334634
vt 0.620059 0.001300
vt 0.399359 0.509116
vt 0.680912 0.001300
vt 0.311980 0.397134
vt 0.321689 0.540366
vt 0.389650 0.509116
vt 0.321689 0.519533
vt 0.952757 0.998700
vt 0.311980 0.519533
vt 0.930738 0.459634
vt 0.321689 0.501300
vt 0.671203 0.332033
vt 0.311980 0.540366
vt 0.311980 0.509116
vt 0.341106 0.519533
vt 0.311980 0.470050
vt 0.642077 0.001300
vt 0.331397 0.519533
vt 0.341106 0.509116
vt 0.930738 0.355467
vt 0.988991 0.334634
vt 0.930738 0.457033
vt 0.331397 0.501300
vt 0.991592 0.334634
vt 0.341106 0.540366
vt 0.930738 0.334634
vt 0.331397 0.540366
vt 0.668603 0.001300
vt 0.379941 0.519533
vt 0.620059 0.407550
vt 0.370232 0.519533
vt 0.972174 0.334634
vt 0.930738 0.376300
vt 0.933339 0.334634
vt 0.360524 0.519533
vt 0.620059 0.498700
vt 0.622660 0.001300
vt 0.620059 0.428384
vt 0.350815 0.519533
vn 0.0000 1.0000 0.0000
vn 0.0000 -1.0000 -0.0000
vn 0.0000 0.0000 1.0000
vn -1.0000 0.0000 0.0000
vn 0.0000 0.0000 -1.0000
vn 1.0000 0.0000 0.0000
usemtl Material
s off
f 5/1/1 3/2/1 1/3/1
f 4/4/2 17/5/2 8/6/2
f 8/7/2 9/8/2 6/9/2
f 6/10/2 4/11/2 8/12/2
f 4/13/3 15/14/3 3/15/3
f 6/16/2 21/17/2 2/18/2
f 11/19/4 9/20/4 10/21/4
f 7/22/3 39/23/3 11/24/3
f 6/25/5 12/26/5 5/27/5
f 7/28/3 10/29/3 8/30/3
f 13/31/6 16/32/6 14/33/6
f 1/34/5 14/35/5 2/36/5
f 2/37/2 16/38/2 4/39/2
f 13/40/3 25/41/3 27/42/3
f 19/43/3 17/44/3 20/45/3
f 18/46/4 42/47/4 7/48/4
f 3/49/6 20/50/6 4/51/6
f 8/52/4 18/53/4 7/54/4
f 24/55/5 21/56/5 22/57/5
f 1/58/3 33/59/3 5/60/3
f 2/61/6 23/62/6 1/63/6
f 5/64/4 22/65/4 6/66/4
f 27/67/6 32/68/6 28/69/6
f 15/70/3 27/71/3 28/72/3
f 1/73/3 26/74/3 25/75/3
f 3/76/3 28/77/3 26/78/3
f 30/79/1 31/80/1 29/81/1
f 28/82/3 30/83/3 26/84/3
f 26/85/4 29/86/4 25/87/4
f 25/88/5 31/89/5 27/90/5
f 33/91/1 36/92/1 35/93/1
f 5/94/4 35/95/4 24/96/4
f 24/97/5 36/98/5 23/99/5
f 23/100/6 34/101/6 1/102/6
f 38/103/1 39/104/1 37/105/1
f 11/106/4 40/107/4 12/108/4
f 5/109/6 37/110/6 7/111/6
f 12/112/5 38/113/5 5/114/5
f 41/115/1 44/116/1 43/117/1
f 19/118/3 44/119/3 18/120/3
f 7/121/5 41/122/5 3/123/5
f 3/124/6 43/125/6 19/126/6
f 5/1/1 7/127/1 3/2/1
f 4/4/2 20/128/2 17/5/2
f 8/7/2 10/129/2 9/8/2
f 6/10/2 2/130/2 4/11/2
f 4/13/3 16/131/3 15/14/3
f 6/16/2 22/132/2 21/17/2
f 11/19/4 12/133/4 9/20/4
f 7/22/3 37/134/3 39/23/3
f 6/25/5 9/135/5 12/26/5
f 7/28/3 11/136/3 10/29/3
f 13/31/6 15/137/6 16/32/6
f 1/34/5 13/138/5 14/35/5
f 2/37/2 14/139/2 16/38/2
f 13/40/3 1/140/3 25/41/3
f 19/43/3 18/141/3 17/44/3
f 18/46/4 44/142/4 42/47/4
f 3/49/6 19/143/6 20/50/6
f 8/52/4 17/144/4 18/53/4
f 24/55/5 23/145/5 21/56/5
f 1/58/3 34/146/3 33/59/3
f 2/61/6 21/147/6 23/62/6
f 5/64/4 24/148/4 22/65/4
f 27/67/6 31/149/6 32/68/6
f 15/70/3 13/150/3 27/71/3
f 1/73/3 3/151/3 26/74/3
f 3/76/3 15/152/3 28/77/3
f 30/79/1 32/153/1 31/80/1
f 28/82/3 32/154/3 30/83/3
f 26/85/4 30/155/4 29/86/4
f 25/88/5 29/156/5 31/89/5
f 33/91/1 34/157/1 36/92/1
f 5/94/4 33/158/4 35/95/4
f 24/97/5 35/159/5 36/98/5
f 23/100/6 36/160/6 34/101/6
f 38/103/1 40/161/1 39/104/1
f 11/106/4 39/162/4 40/107/4
f 5/109/6 38/163/6 37/110/6
f 12/112/5 40/164/5 38/113/5
f 41/115/1 42/165/1 44/116/1
f 19/118/3 43/166/3 44/119/3
f 7/121/5 42/167/5 41/122/5
f 3/124/6 41/168/6 43/125/6
